M48
; DRILL file KiCad 10.0.4 date 2026-07-30T17:46:24
; FORMAT={-:-/ absolute / metric / decimal}
; #@! TF.CreationDate,2026-07-30T17:46:24+03:00
; #@! TF.GenerationSoftware,Kicad,Pcbnew,10.0.4
; #@! TF.FileFunction,Plated,1,2,PTH
FMAT,2
METRIC
; #@! TA.AperFunction,Plated,PTH,ViaDrill
T1C0.300
; #@! TA.AperFunction,Plated,PTH,ComponentDrill
T2C0.600
; #@! TA.AperFunction,Plated,PTH,ComponentDrill
T3C0.800
; #@! TA.AperFunction,Plated,PTH,ComponentDrill
T4C0.950
; #@! TA.AperFunction,Plated,PTH,ComponentDrill
T5C1.000
; #@! TA.AperFunction,Plated,PTH,ComponentDrill
T6C1.100
; #@! TA.AperFunction,Plated,PTH,ComponentDrill
T7C1.300
%
G90
G05
T1
X28.448Y-55.88
X28.702Y-79.502
X36.322Y-73.406
X37.592Y-79.756
X38.354Y-73.914
X38.608Y-94.234
X43.18Y-63.246
X44.196Y-97.79
X48.768Y-78.74
X50.546Y-86.614
X51.321Y-44.871
X52.324Y-78.74
X53.086Y-40.132
X53.086Y-86.614
X53.594Y-51.054
X57.15Y-78.74
X60.706Y-53.594
X60.706Y-78.74
X61.468Y-93.726
X63.5Y-35.306
X63.5Y-37.338
X64.112Y-46.249
X64.12Y-44.083
X64.77Y-40.386
X65.278Y-38.1
X66.294Y-51.308
X66.802Y-39.116
X66.802Y-52.832
X67.31Y-36.576
X67.31Y-61.976
X67.31Y-65.532
X67.564Y-39.878
X67.564Y-52.07
X68.072Y-68.58
X68.072Y-83.566
X68.849Y-80.772
X69.342Y-53.594
X69.342Y-54.864
X69.596Y-52.07
X69.596Y-52.832
X69.596Y-61.976
X69.66Y-67.522
X69.85Y-51.308
X70.866Y-93.472
X71.066Y-50.976
X71.851Y-63.36
X73.152Y-62.738
X73.406Y-66.04
X73.787Y-65.151
X73.914Y-39.116
X74.168Y-54.356
X74.168Y-88.646
X74.93Y-41.91
X75.184Y-42.926
X75.946Y-46.228
X76.2Y-37.846
X76.454Y-89.408
X76.708Y-82.804
X77.216Y-67.564
X77.47Y-50.292
X77.978Y-30.226
X78.359Y-63.881
X78.74Y-45.72
X78.875Y-32.393
X79.756Y-85.344
X79.756Y-89.408
X84.836Y-68.58
X87.975Y-31.423
X89.408Y-50.292
X90.424Y-70.358
X91.694Y-30.48
X91.694Y-34.798
X91.948Y-50.8
X94.488Y-51.308
X94.742Y-53.594
X96.52Y-55.118
X100.076Y-44.704
X100.584Y-55.372
X100.584Y-89.408
X100.736Y-52.877
X100.838Y-48.006
X101.346Y-64.77
X101.346Y-65.532
X101.854Y-87.122
X102.108Y-64.008
X102.108Y-75.692
X102.87Y-29.464
X102.87Y-34.798
X102.87Y-64.008
X103.632Y-64.008
X103.886Y-50.292
X105.664Y-78.994
X105.664Y-79.756
X106.426Y-50.292
X106.426Y-78.994
X106.426Y-79.756
X106.68Y-89.916
X106.934Y-45.974
X107.188Y-56.896
X107.188Y-78.994
X107.188Y-79.756
X107.95Y-78.994
X107.95Y-79.756
X108.712Y-78.994
X108.712Y-79.756
X109.474Y-78.994
X109.474Y-79.756
X109.982Y-67.818
X110.236Y-78.994
X110.236Y-79.756
T3
X38.524Y-71.06
X40.724Y-63.56
X44.327Y-77.41
X46.102Y-69.91
X48.006Y-82.042
X55.626Y-82.042
T4
X67.172Y-30.326
X69.672Y-30.326
X72.172Y-30.326
X74.672Y-30.326
T5
X50.438Y-73.86
X62.438Y-73.86
X80.34Y-29.31
X82.88Y-29.31
X85.42Y-29.31
X87.96Y-29.31
T6
X28.53Y-58.801
X28.53Y-62.611
X54.738Y-29.092
X54.738Y-33.592
X61.238Y-29.092
X61.238Y-33.592
X71.186Y-71.374
X71.186Y-73.914
X71.186Y-76.454
X108.286Y-72.263
X108.286Y-76.073
T7
X50.388Y-61.61
X56.388Y-75.81
X62.438Y-61.66
T2
G00X92.96Y-30.88
M15
G01X92.96Y-30.08
M16
G05
G00X92.96Y-35.21
M15
G01X92.96Y-34.11
M16
G05
G00X101.6Y-30.88
M15
G01X101.6Y-30.08
M16
G05
G00X101.6Y-35.21
M15
G01X101.6Y-34.11
M16
G05
M30
