G04 #@! TF.GenerationSoftware,KiCad,Pcbnew,10.0.4*
G04 #@! TF.CreationDate,2026-07-30T17:44:46+03:00*
G04 #@! TF.ProjectId,buck converter V6,6275636b-2063-46f6-9e76-657274657220,rev?*
G04 #@! TF.SameCoordinates,Original*
G04 #@! TF.FileFunction,Paste,Top*
G04 #@! TF.FilePolarity,Positive*
%FSLAX46Y46*%
G04 Gerber Fmt 4.6, Leading zero omitted, Abs format (unit mm)*
G04 Created by KiCad (PCBNEW 10.0.4) date 2026-07-30 17:44:46*
%MOMM*%
%LPD*%
G01*
G04 APERTURE LIST*
G04 Aperture macros list*
%AMRoundRect*
0 Rectangle with rounded corners*
0 $1 Rounding radius*
0 $2 $3 $4 $5 $6 $7 $8 $9 X,Y pos of 4 corners*
0 Add a 4 corners polygon primitive as box body*
4,1,4,$2,$3,$4,$5,$6,$7,$8,$9,$2,$3,0*
0 Add four circle primitives for the rounded corners*
1,1,$1+$1,$2,$3*
1,1,$1+$1,$4,$5*
1,1,$1+$1,$6,$7*
1,1,$1+$1,$8,$9*
0 Add four rect primitives between the rounded corners*
20,1,$1+$1,$2,$3,$4,$5,0*
20,1,$1+$1,$4,$5,$6,$7,0*
20,1,$1+$1,$6,$7,$8,$9,0*
20,1,$1+$1,$8,$9,$2,$3,0*%
G04 Aperture macros list end*
%ADD10RoundRect,0.225000X0.375000X-0.225000X0.375000X0.225000X-0.375000X0.225000X-0.375000X-0.225000X0*%
%ADD11RoundRect,0.250000X-0.550000X1.250000X-0.550000X-1.250000X0.550000X-1.250000X0.550000X1.250000X0*%
%ADD12RoundRect,0.250000X0.337500X0.475000X-0.337500X0.475000X-0.337500X-0.475000X0.337500X-0.475000X0*%
%ADD13RoundRect,0.250000X-0.337500X-0.475000X0.337500X-0.475000X0.337500X0.475000X-0.337500X0.475000X0*%
%ADD14RoundRect,0.250000X-0.325000X-0.450000X0.325000X-0.450000X0.325000X0.450000X-0.325000X0.450000X0*%
%ADD15RoundRect,0.250000X0.450000X-0.350000X0.450000X0.350000X-0.450000X0.350000X-0.450000X-0.350000X0*%
%ADD16RoundRect,0.250000X-0.350000X-0.450000X0.350000X-0.450000X0.350000X0.450000X-0.350000X0.450000X0*%
%ADD17RoundRect,0.250000X0.325000X0.450000X-0.325000X0.450000X-0.325000X-0.450000X0.325000X-0.450000X0*%
%ADD18RoundRect,0.250000X0.350000X0.450000X-0.350000X0.450000X-0.350000X-0.450000X0.350000X-0.450000X0*%
%ADD19RoundRect,0.237500X0.237500X-0.287500X0.237500X0.287500X-0.237500X0.287500X-0.237500X-0.287500X0*%
%ADD20RoundRect,0.250000X-1.375000X-2.500000X1.375000X-2.500000X1.375000X2.500000X-1.375000X2.500000X0*%
%ADD21RoundRect,0.250000X-1.250000X-0.550000X1.250000X-0.550000X1.250000X0.550000X-1.250000X0.550000X0*%
%ADD22RoundRect,0.150000X0.150000X-0.825000X0.150000X0.825000X-0.150000X0.825000X-0.150000X-0.825000X0*%
%ADD23RoundRect,0.250000X0.650000X-1.500000X0.650000X1.500000X-0.650000X1.500000X-0.650000X-1.500000X0*%
%ADD24RoundRect,0.250000X0.475000X-0.337500X0.475000X0.337500X-0.475000X0.337500X-0.475000X-0.337500X0*%
%ADD25RoundRect,0.162500X0.617500X0.162500X-0.617500X0.162500X-0.617500X-0.162500X0.617500X-0.162500X0*%
%ADD26RoundRect,0.250000X-0.450000X0.350000X-0.450000X-0.350000X0.450000X-0.350000X0.450000X0.350000X0*%
%ADD27RoundRect,0.150000X0.587500X0.150000X-0.587500X0.150000X-0.587500X-0.150000X0.587500X-0.150000X0*%
%ADD28R,2.800000X5.300000*%
%ADD29RoundRect,0.250000X-0.650000X1.500000X-0.650000X-1.500000X0.650000X-1.500000X0.650000X1.500000X0*%
%ADD30RoundRect,0.250000X1.500000X0.650000X-1.500000X0.650000X-1.500000X-0.650000X1.500000X-0.650000X0*%
%ADD31RoundRect,0.250001X-0.624999X0.462499X-0.624999X-0.462499X0.624999X-0.462499X0.624999X0.462499X0*%
%ADD32RoundRect,0.150000X0.150000X0.425000X-0.150000X0.425000X-0.150000X-0.425000X0.150000X-0.425000X0*%
%ADD33RoundRect,0.075000X0.075000X0.500000X-0.075000X0.500000X-0.075000X-0.500000X0.075000X-0.500000X0*%
%ADD34O,1.000000X2.100000*%
%ADD35O,1.000000X1.800000*%
%ADD36RoundRect,0.225000X-0.225000X-0.375000X0.225000X-0.375000X0.225000X0.375000X-0.225000X0.375000X0*%
%ADD37RoundRect,0.150000X-0.150000X0.825000X-0.150000X-0.825000X0.150000X-0.825000X0.150000X0.825000X0*%
%ADD38RoundRect,0.075000X-0.662500X-0.075000X0.662500X-0.075000X0.662500X0.075000X-0.662500X0.075000X0*%
%ADD39RoundRect,0.075000X-0.075000X-0.662500X0.075000X-0.662500X0.075000X0.662500X-0.075000X0.662500X0*%
%ADD40RoundRect,0.250000X0.300000X0.300000X-0.300000X0.300000X-0.300000X-0.300000X0.300000X-0.300000X0*%
%ADD41RoundRect,0.250000X2.025000X2.375000X-2.025000X2.375000X-2.025000X-2.375000X2.025000X-2.375000X0*%
%ADD42RoundRect,0.250000X2.050000X0.300000X-2.050000X0.300000X-2.050000X-0.300000X2.050000X-0.300000X0*%
%ADD43RoundRect,0.250000X-2.025000X-2.375000X2.025000X-2.375000X2.025000X2.375000X-2.025000X2.375000X0*%
%ADD44RoundRect,0.250000X-2.050000X-0.300000X2.050000X-0.300000X2.050000X0.300000X-2.050000X0.300000X0*%
%ADD45RoundRect,0.250000X-0.475000X0.337500X-0.475000X-0.337500X0.475000X-0.337500X0.475000X0.337500X0*%
%ADD46RoundRect,0.250000X-0.450000X0.325000X-0.450000X-0.325000X0.450000X-0.325000X0.450000X0.325000X0*%
%ADD47RoundRect,0.375000X-0.375000X0.625000X-0.375000X-0.625000X0.375000X-0.625000X0.375000X0.625000X0*%
%ADD48RoundRect,0.500000X-1.400000X0.500000X-1.400000X-0.500000X1.400000X-0.500000X1.400000X0.500000X0*%
%ADD49RoundRect,0.250000X-0.950000X0.750000X-0.950000X-0.750000X0.950000X-0.750000X0.950000X0.750000X0*%
G04 APERTURE END LIST*
D10*
X96266000Y-85978000D03*
X96266000Y-82678000D03*
D11*
X61468000Y-86954000D03*
X61468000Y-91354000D03*
D12*
X62759500Y-51662023D03*
X60684500Y-51662023D03*
D13*
X71098500Y-67564000D03*
X73173500Y-67564000D03*
D14*
X66269000Y-70104000D03*
X68319000Y-70104000D03*
D13*
X55097710Y-40185845D03*
X57172710Y-40185845D03*
D15*
X104902000Y-53594000D03*
X104902000Y-51594000D03*
D14*
X38091000Y-58928000D03*
X40141000Y-58928000D03*
D12*
X57292288Y-51119911D03*
X55217288Y-51119911D03*
D16*
X63008000Y-83566000D03*
X65008000Y-83566000D03*
D12*
X63323105Y-41231023D03*
X61248105Y-41231023D03*
D17*
X45974000Y-65024000D03*
X43924000Y-65024000D03*
D13*
X67288500Y-60452000D03*
X69363500Y-60452000D03*
D16*
X102568000Y-48260000D03*
X104568000Y-48260000D03*
D18*
X45949000Y-61468000D03*
X43949000Y-61468000D03*
D19*
X65142449Y-51896757D03*
X65142449Y-50146759D03*
D16*
X56733605Y-36930023D03*
X58733605Y-36930023D03*
D20*
X86831000Y-62230000D03*
X98081000Y-62230000D03*
D21*
X71206000Y-84582000D03*
X75606000Y-84582000D03*
D16*
X75470000Y-65278000D03*
X77470000Y-65278000D03*
D13*
X33020000Y-73406000D03*
X35095000Y-73406000D03*
X70590500Y-88646000D03*
X72665500Y-88646000D03*
D22*
X101854000Y-61722000D03*
X103124000Y-61722000D03*
X104394000Y-61722000D03*
X105664000Y-61722000D03*
X105664000Y-56772000D03*
X104394000Y-56772000D03*
X103124000Y-56772000D03*
X101854000Y-56772000D03*
D15*
X58674000Y-100568000D03*
X58674000Y-98568000D03*
D18*
X65008000Y-81280000D03*
X63008000Y-81280000D03*
D23*
X101854000Y-84288000D03*
X101854000Y-79288000D03*
D12*
X63323105Y-39079841D03*
X61248105Y-39079841D03*
D13*
X33020000Y-76962000D03*
X35095000Y-76962000D03*
D24*
X102743000Y-67585500D03*
X102743000Y-65510500D03*
D25*
X99140000Y-53766000D03*
X99140000Y-52816000D03*
X99140000Y-51866000D03*
X96440000Y-51866000D03*
X96440000Y-53766000D03*
D26*
X102362000Y-51594000D03*
X102362000Y-53594000D03*
D27*
X60627500Y-82992000D03*
X60627500Y-81092000D03*
X58752500Y-82042000D03*
D28*
X46258000Y-94234000D03*
X56358000Y-94234000D03*
D18*
X44180000Y-99314000D03*
X42180000Y-99314000D03*
D26*
X75946000Y-67580000D03*
X75946000Y-69580000D03*
D16*
X85868000Y-72644000D03*
X87868000Y-72644000D03*
D29*
X82550000Y-64556000D03*
X82550000Y-69556000D03*
D30*
X31710000Y-68072000D03*
X26710000Y-68072000D03*
D11*
X28702000Y-72730000D03*
X28702000Y-77130000D03*
D12*
X56409500Y-86614000D03*
X54334500Y-86614000D03*
D28*
X83088000Y-80264000D03*
X93188000Y-80264000D03*
D25*
X99060000Y-48702000D03*
X99060000Y-47752000D03*
X99060000Y-46802000D03*
X96360000Y-46802000D03*
X96360000Y-48702000D03*
D23*
X105154000Y-35325000D03*
X105154000Y-30325000D03*
D31*
X108792677Y-91733672D03*
X108792677Y-94708672D03*
D32*
X100480000Y-35235000D03*
X99680000Y-35235000D03*
D33*
X98530000Y-35235000D03*
X97530000Y-35235000D03*
X97030000Y-35235000D03*
X96030000Y-35235000D03*
D32*
X94880000Y-35235000D03*
X94080000Y-35235000D03*
X94080000Y-35235000D03*
X94880000Y-35235000D03*
D33*
X95530000Y-35235000D03*
X96530000Y-35235000D03*
X98030000Y-35235000D03*
X99030000Y-35235000D03*
D32*
X99680000Y-35235000D03*
X100480000Y-35235000D03*
D34*
X101600000Y-34660000D03*
D35*
X101600000Y-30480000D03*
D34*
X92960000Y-34660000D03*
D35*
X92960000Y-30480000D03*
D12*
X62759500Y-49376023D03*
X60684500Y-49376023D03*
D36*
X46102000Y-86614000D03*
X49402000Y-86614000D03*
D18*
X95232000Y-37397000D03*
X93232000Y-37397000D03*
X88122000Y-70358000D03*
X86122000Y-70358000D03*
D16*
X99836000Y-37397000D03*
X101836000Y-37397000D03*
D37*
X74803000Y-56199000D03*
X73533000Y-56199000D03*
X72263000Y-56199000D03*
X70993000Y-56199000D03*
X70993000Y-61149000D03*
X72263000Y-61149000D03*
X73533000Y-61149000D03*
X74803000Y-61149000D03*
D38*
X65470077Y-42704000D03*
X65470077Y-43204000D03*
X65470077Y-43704000D03*
X65470077Y-44204000D03*
X65470077Y-44704000D03*
X65470077Y-45204000D03*
X65470077Y-45704000D03*
X65470077Y-46204000D03*
X65470077Y-46704000D03*
X65470077Y-47204000D03*
X65470077Y-47704000D03*
X65470077Y-48204000D03*
D39*
X66882577Y-49616500D03*
X67382577Y-49616500D03*
X67882577Y-49616500D03*
X68382577Y-49616500D03*
X68882577Y-49616500D03*
X69382577Y-49616500D03*
X69882577Y-49616500D03*
X70382577Y-49616500D03*
X70882577Y-49616500D03*
X71382577Y-49616500D03*
X71882577Y-49616500D03*
X72382577Y-49616500D03*
D38*
X73795077Y-48204000D03*
X73795077Y-47704000D03*
X73795077Y-47204000D03*
X73795077Y-46704000D03*
X73795077Y-46204000D03*
X73795077Y-45704000D03*
X73795077Y-45204000D03*
X73795077Y-44704000D03*
X73795077Y-44204000D03*
X73795077Y-43704000D03*
X73795077Y-43204000D03*
X73795077Y-42704000D03*
D39*
X72382577Y-41291500D03*
X71882577Y-41291500D03*
X71382577Y-41291500D03*
X70882577Y-41291500D03*
X70382577Y-41291500D03*
X69882577Y-41291500D03*
X69382577Y-41291500D03*
X68882577Y-41291500D03*
X68382577Y-41291500D03*
X67882577Y-41291500D03*
X67382577Y-41291500D03*
X66882577Y-41291500D03*
D40*
X68710000Y-64008000D03*
X65910000Y-64008000D03*
D41*
X31816000Y-90913000D03*
X31816000Y-85363000D03*
X26966000Y-90913000D03*
X26966000Y-85363000D03*
D42*
X38541000Y-91538000D03*
X38541000Y-89838000D03*
X38541000Y-88138000D03*
X38541000Y-86438000D03*
X38541000Y-84738000D03*
D13*
X74240928Y-50235274D03*
X76315928Y-50235274D03*
D43*
X89753000Y-89935000D03*
X89753000Y-95485000D03*
X94603000Y-89935000D03*
X94603000Y-95485000D03*
D44*
X83028000Y-89310000D03*
X83028000Y-91010000D03*
X83028000Y-92710000D03*
X83028000Y-94410000D03*
X83028000Y-96110000D03*
D45*
X52653605Y-44854524D03*
X52653605Y-46929524D03*
D16*
X55209605Y-48868023D03*
X57209605Y-48868023D03*
D18*
X68310000Y-67310000D03*
X66310000Y-67310000D03*
D30*
X65492000Y-95758000D03*
X60492000Y-95758000D03*
D13*
X70590500Y-91440000D03*
X72665500Y-91440000D03*
X74202105Y-40723023D03*
X76277105Y-40723023D03*
D46*
X108077000Y-65500500D03*
X108077000Y-67550500D03*
D47*
X105932000Y-91998000D03*
X103632000Y-91998000D03*
D48*
X103632000Y-98298000D03*
D47*
X101332000Y-91998000D03*
D16*
X66294000Y-72898000D03*
X68294000Y-72898000D03*
X102568000Y-45974000D03*
X104568000Y-45974000D03*
D24*
X107442000Y-53631500D03*
X107442000Y-51556500D03*
D15*
X105410000Y-67548000D03*
X105410000Y-65548000D03*
D21*
X96352000Y-73914000D03*
X100752000Y-73914000D03*
D31*
X98552000Y-91882500D03*
X98552000Y-94857500D03*
D12*
X62759500Y-47090023D03*
X60684500Y-47090023D03*
D13*
X95990500Y-80010000D03*
X98065500Y-80010000D03*
D49*
X55955605Y-42772024D03*
X55955605Y-46472024D03*
M02*
